<svg width="47" height="47" viewBox="0 0 47 47" fill="none" xmlns="http://www.w3.org/2000/svg">
<path d="M23.5 0C10.5225 0 0 10.5225 0 23.5C0 36.4775 10.5225 47 23.5 47C36.4775 47 47 36.4775 47 23.5C47 10.5225 36.4775 0 23.5 0ZM11.75 18.7266C11.7634 18.0677 12.0346 17.4403 12.5054 16.9791C12.9761 16.5179 13.6088 16.2596 14.2679 16.2596C14.9269 16.2596 15.5596 16.5179 16.0304 16.9791C16.5011 17.4403 16.7723 18.0677 16.7857 18.7266C16.7723 19.3854 16.5011 20.0128 16.0304 20.474C15.5596 20.9352 14.9269 21.1935 14.2679 21.1935C13.6088 21.1935 12.9761 20.9352 12.5054 20.474C12.0346 20.0128 11.7634 19.3854 11.75 18.7266ZM23.5 32.9944C19.0151 32.9944 15.3379 29.4642 15.1071 25.0422C15.1043 24.9853 15.113 24.9285 15.1329 24.8751C15.1527 24.8218 15.1831 24.773 15.2224 24.7318C15.2616 24.6906 15.3089 24.6578 15.3612 24.6354C15.4135 24.613 15.4699 24.6015 15.5268 24.6016H18.0499C18.2702 24.6016 18.459 24.7694 18.4748 24.9897C18.6741 27.5863 20.851 29.6373 23.5 29.6373C26.149 29.6373 28.3311 27.5863 28.5252 24.9897C28.541 24.7694 28.7298 24.6016 28.9501 24.6016H31.4732C31.5301 24.6015 31.5865 24.613 31.6388 24.6354C31.6911 24.6578 31.7384 24.6906 31.7776 24.7318C31.8169 24.773 31.8473 24.8218 31.8671 24.8751C31.887 24.9285 31.8957 24.9853 31.8929 25.0422C31.6621 29.4642 27.9849 32.9944 23.5 32.9944ZM32.7321 21.2444C32.0733 21.231 31.4459 20.9598 30.9847 20.4891C30.5235 20.0183 30.2652 19.3856 30.2652 18.7266C30.2652 18.0675 30.5235 17.4348 30.9847 16.9641C31.4459 16.4933 32.0733 16.2222 32.7321 16.2087C33.391 16.2222 34.0184 16.4933 34.4796 16.9641C34.9408 17.4348 35.1991 18.0675 35.1991 18.7266C35.1991 19.3856 34.9408 20.0183 34.4796 20.4891C34.0184 20.9598 33.391 21.231 32.7321 21.2444Z" fill="#1DACFF"/>
</svg>
