<svg width="57" height="57" viewBox="0 0 57 57" fill="none" xmlns="http://www.w3.org/2000/svg">
<path d="M40.9688 19.9433V18.7031C40.9688 13.1189 32.5457 8.90625 21.375 8.90625C10.2043 8.90625 1.78125 13.1189 1.78125 18.7031V27.6094C1.78125 32.2607 7.62598 35.9568 16.0312 37.0634V38.2969C16.0312 43.8811 24.4543 48.0938 35.625 48.0938C46.7957 48.0938 55.2188 43.8811 55.2188 38.2969V29.3906C55.2188 24.7816 49.5588 21.0811 40.9688 19.9433ZM51.6562 29.3906C51.6562 32.3341 44.8007 35.625 35.625 35.625C34.7945 35.625 33.9707 35.5961 33.158 35.5426C37.9607 33.7925 40.9688 30.9492 40.9688 27.6094V23.5437C47.6195 24.5345 51.6562 27.2242 51.6562 29.3906ZM16.0312 33.4541V28.1571C17.8031 28.3878 19.5882 28.5024 21.375 28.5C23.1618 28.5024 24.9469 28.3878 26.7188 28.1571V33.4541C24.9495 33.7155 23.1634 33.8457 21.375 33.8438C19.5866 33.8457 17.8005 33.7155 16.0312 33.4541ZM37.4062 24.4766V27.6094C37.4062 29.4775 34.6431 31.4836 30.2812 32.7015V27.498C33.1557 26.8011 35.5894 25.7636 37.4062 24.4766ZM21.375 12.4688C30.5507 12.4688 37.4062 15.7596 37.4062 18.7031C37.4062 21.6466 30.5507 24.9375 21.375 24.9375C12.1993 24.9375 5.34375 21.6466 5.34375 18.7031C5.34375 15.7596 12.1993 12.4688 21.375 12.4688ZM5.34375 27.6094V24.4766C7.16062 25.7636 9.59426 26.8011 12.4688 27.498V32.7015C8.10691 31.4836 5.34375 29.4775 5.34375 27.6094ZM19.5938 38.2969V37.3684C20.1793 37.3907 20.7716 37.4062 21.375 37.4062C22.2389 37.4062 23.0828 37.3773 23.9111 37.3283C24.8312 37.6577 25.7685 37.9372 26.7188 38.1655V43.389C22.3569 42.1711 19.5938 40.165 19.5938 38.2969ZM30.2812 44.1416V38.8312C32.0525 39.0693 33.8378 39.1884 35.625 39.1875C37.4118 39.1899 39.1969 39.0753 40.9688 38.8446V44.1416C37.4252 44.661 33.8248 44.661 30.2812 44.1416ZM44.5312 43.389V38.1855C47.4057 37.4886 49.8394 36.4511 51.6562 35.1641V38.2969C51.6562 40.165 48.8931 42.1711 44.5312 43.389Z" fill="#1DACFF"/>
</svg>
