<svg width="57" height="57" viewBox="0 0 57 57" fill="none" xmlns="http://www.w3.org/2000/svg">
<path d="M14.25 42.75H42.75V14.25H14.25V42.75ZM33.25 47.5H23.75V52.25H19V47.5H11.875C11.2451 47.5 10.641 47.2498 10.1956 46.8044C9.75022 46.359 9.5 45.7549 9.5 45.125V38H4.75V33.25H9.5V23.75H4.75V19H9.5V11.875C9.5 11.2451 9.75022 10.641 10.1956 10.1956C10.641 9.75022 11.2451 9.5 11.875 9.5H19V4.75H23.75V9.5H33.25V4.75H38V9.5H45.125C45.7549 9.5 46.359 9.75022 46.8044 10.1956C47.2498 10.641 47.5 11.2451 47.5 11.875V19H52.25V23.75H47.5V33.25H52.25V38H47.5V45.125C47.5 45.7549 47.2498 46.359 46.8044 46.8044C46.359 47.2498 45.7549 47.5 45.125 47.5H38V52.25H33.25V47.5ZM19 19H38V38H19V19Z" fill="#1DACFF"/>
</svg>
